<?xml version="1.0" encoding="UTF-8"?>
<svg id="Layer_2" data-name="Layer 2" xmlns="http://www.w3.org/2000/svg" xmlns:xlink="http://www.w3.org/1999/xlink" viewBox="0 0 77.97 69.36">
  <defs>
    <style>
      .cls-1 {
        fill: url(#New_Gradient_Swatch_2);
      }
    </style>
    <linearGradient id="New_Gradient_Swatch_2" data-name="New Gradient Swatch 2" x1="24.74" y1="70.91" x2="69.49" y2="-9.63" gradientUnits="userSpaceOnUse">
      <stop offset="0" stop-color="#373a82"/>
      <stop offset=".3" stop-color="#275980"/>
      <stop offset=".58" stop-color="#11817e"/>
      <stop offset=".86" stop-color="#23baaa"/>
    </linearGradient>
  </defs>
  <g id="Layer_1-2" data-name="Layer 1">
    <path class="cls-1" d="M77.88,48.72c-5.78-5.18-12.19-10.01-19.98-11.53-3.67-.63-7.38-.44-11.12.56-3.93.72-8.03,2.16-11.47-.63-1.63-1.33-2.82-2.92-3.56-4.79-.45-1.14-.69-2.58-.71-4.32-.02-2.13-.09-4.05.28-5.88.1-.5.18-.99.25-1.5.54-2.45,1.4-4.78,2.58-6.99l-.02-.02c.95-1.75,2.03-3.39,3.25-4.92.05-.06.14-.06.18,0,3.65,4.53,5.67,9.69,6.06,15.48h.01c.21,3.71-.51,7.22-2.17,10.55-.09.17-.02.38.15.48.45.25.95.4,1.51.44,3.98.32,6.26-2.45,6.5-6.3h0c1.45-11.2-3.35-22.24-12.01-29.31-.08-.06-.18-.06-.26,0-3.06,2.48-5.61,5.41-7.64,8.79l.02.02c-1.47,2.37-2.62,4.88-3.45,7.53-2.05,6.5-2.26,14.53.96,20.73,1.07,2.05,2.58,3.79,4.53,5.21,3.35,2.43,7.05,3.34,11.11,2.72.09-.01,1.4-.35,3.91-1.02,1.47-.39,2.96-.65,4.48-.77,3.51-.07,6.9.57,10.17,1.9,1.88.77,3.74,1.64,5.57,2.62l2.52,1.65c.09.06.11.19.04.27l-.11.12c-1.99,2.15-4.2,4.04-6.64,5.67-3.48,2.4-7.29,3.86-11.45,4.4-1.22.04-2.53.07-3.66-.25-2.81-.78-5.24-2.27-7.28-4.47-1.86-2-3.46-4.07-5.37-5.88-1.59-1.51-3.25-2.91-4.96-4.2-3.08-2.32-6.57-3.78-10.09-4.5-3.8-.78-7.73-.98-11.8-.62h0c-2.72.24-5.4.73-8.04,1.45-.1.02-.16.12-.15.21.24,2.39.42,3.91.54,4.54,1.25,6.65,4.49,13.37,10.02,17.5,1.45,1.08,3.22,2.08,5.31,3,4.89,2.14,10.14,3.16,15.43,2.51.11,0,.21-.04.31-.08,2.99-1.17,4.42-4.17,3.15-7.14-.04-.1-.15-.14-.25-.1-1.51.62-2.54.97-3.11,1.05-3.48.5-6.88.2-10.2-.89-3.85-1.27-7.34-3.01-9.9-6.3-2.07-2.67-3.5-5.78-4.31-9.32-.01-.05.03-.1.08-.1l6.66-.25h.01c2.25.1,4.36.41,6.34.96,4.05,1.12,6.81,3.3,10.18,6.32,2.3,2.07,4.38,5.04,6.49,6.99,5.19,4.78,11.18,6.98,18.36,5.25,0,0,0,0,0-.01.25-.04.5-.1.77-.17,4.37-1.16,8.36-3.11,11.96-5.85,2.26-1.64,4.35-3.49,6.25-5.57,1.33-1.41,2.61-3.04,3.85-4.87.08-.12.06-.27-.05-.37Z"/>
  </g>
</svg>