<?xml version="1.0" encoding="UTF-8"?>
<svg id="Layer_2" data-name="Layer 2" xmlns="http://www.w3.org/2000/svg" xmlns:xlink="http://www.w3.org/1999/xlink" viewBox="0 0 174.02 69.36">
  <defs>
    <style>
      .cls-1 {
        fill: url(#New_Gradient_Swatch_2);
      }

      .cls-2 {
        fill: #2b5799;
      }
    </style>
    <linearGradient id="New_Gradient_Swatch_2" data-name="New Gradient Swatch 2" x1="120.79" y1="70.91" x2="165.54" y2="-9.63" gradientUnits="userSpaceOnUse">
      <stop offset="0" stop-color="#373a82"/>
      <stop offset=".3" stop-color="#275980"/>
      <stop offset=".58" stop-color="#11817e"/>
      <stop offset=".86" stop-color="#23baaa"/>
    </linearGradient>
  </defs>
  <g id="Layer_1-2" data-name="Layer 1">
    <path class="cls-1" d="M173.93,48.72c-5.78-5.18-12.19-10.01-19.98-11.53-3.67-.63-7.38-.44-11.12.56-3.93.72-8.03,2.16-11.47-.63-1.63-1.33-2.82-2.92-3.56-4.79-.45-1.14-.69-2.58-.71-4.32-.02-2.13-.09-4.05.28-5.88.1-.5.18-.99.25-1.5.54-2.45,1.4-4.78,2.58-6.99l-.02-.02c.95-1.75,2.03-3.39,3.25-4.92.05-.06.14-.06.18,0,3.65,4.53,5.67,9.69,6.06,15.48h.01c.21,3.71-.51,7.22-2.17,10.55-.09.17-.02.38.15.48.45.25.95.4,1.51.44,3.98.32,6.26-2.45,6.5-6.3h0c1.45-11.2-3.35-22.24-12.01-29.31-.08-.06-.18-.06-.26,0-3.06,2.48-5.61,5.41-7.64,8.79l.02.02c-1.47,2.37-2.62,4.88-3.45,7.53-2.05,6.5-2.26,14.53.96,20.73,1.07,2.05,2.58,3.79,4.53,5.21,3.35,2.43,7.05,3.34,11.11,2.72.09-.01,1.4-.35,3.91-1.02,1.47-.39,2.96-.65,4.48-.77,3.51-.07,6.9.57,10.17,1.9,1.88.77,3.74,1.64,5.57,2.62l2.52,1.65c.09.06.11.19.04.27l-.11.12c-1.99,2.15-4.2,4.04-6.64,5.67-3.48,2.4-7.29,3.86-11.45,4.4-1.22.04-2.53.07-3.66-.25-2.81-.78-5.24-2.27-7.28-4.47-1.86-2-3.46-4.07-5.37-5.88-1.59-1.51-3.25-2.91-4.96-4.2-3.08-2.32-6.57-3.78-10.09-4.5-3.8-.78-7.73-.98-11.8-.62h0c-2.72.24-5.4.73-8.04,1.45-.1.02-.16.12-.15.21.24,2.39.42,3.91.54,4.54,1.25,6.65,4.49,13.37,10.02,17.5,1.45,1.08,3.22,2.08,5.31,3,4.89,2.14,10.14,3.16,15.43,2.51.11,0,.21-.04.31-.08,2.99-1.17,4.42-4.17,3.15-7.14-.04-.1-.15-.14-.25-.1-1.51.62-2.54.97-3.11,1.05-3.48.5-6.88.2-10.2-.89-3.85-1.27-7.34-3.01-9.9-6.3-2.07-2.67-3.5-5.78-4.31-9.32-.01-.05.03-.1.08-.1l6.66-.25h.01c2.25.1,4.36.41,6.34.96,4.05,1.12,6.81,3.3,10.18,6.32,2.3,2.07,4.38,5.04,6.49,6.99,5.19,4.78,11.18,6.98,18.36,5.25,0,0,0,0,0-.01.25-.04.5-.1.77-.17,4.37-1.16,8.36-3.11,11.96-5.85,2.26-1.64,4.35-3.49,6.25-5.57,1.33-1.41,2.61-3.04,3.85-4.87.08-.12.06-.27-.05-.37Z"/>
    <path class="cls-2" d="M66.45,18.92c.14.03.65.07,1.53.1,2.44.11,3.67,1.39,3.66,3.85,0,1.7-.34,3.28,1.66,3.34.88.02,1.73.02,2.56,0,.4-.01.72-.34.72-.75v-6.23c0-.13.1-.23.23-.23h2.18c.12,0,.23.1.23.23,0,2.36,0,4.51,0,6.44,0,1.46-.52,2.81-2.23,2.83-1.3,0-2.6,0-3.89-.02-.8-.02-1.42-.39-1.85-1.13-.04-.07-.15-.07-.19,0-.44.76-1.14,1.14-2.1,1.14-2.98,0-6.81.01-11.49,0-.15,0-.27.12-.27.27-.06,5.03-3.8,4.49-7.34,4.5-.22,0-.39-.17-.39-.39v-1.67c0-.2.16-.36.36-.36h3.27c.55,0,1.04-.37,1.18-.9l.27-.99c.09-.3-.2-.57-.49-.48-.12.04-.7.05-1.73.04-1.76-.03-3.37-.19-4.16-1.96-1.25-2.81-.53-7.24,3.14-7.9,3.61-.65,5.87,1.4,5.87,5.03,0,1.54,0,2.35,0,2.42,0,.06.05.1.1.1,5.88.02,9.37.02,10.47,0,.85-.01,1.3-.34,1.31-1.23.04-1.91.36-3.5-1.8-3.76-.27-.03-1.67-.04-4.18-.03-.16,0-.29-.13-.29-.29v-1.31c0-.27.09-.53.27-.74l5.04-5.9c.12-.14.32-.15.46-.04l1.35,1.15c.13.11.15.31.03.45l-3.56,4.18c-.07.08-.03.2.07.22M54.54,26.01c.04-1.89.37-4.77-1.68-5.07-2.28-.32-2.8,1.7-2.61,3.49.19,1.77,1.37,1.78,2.77,1.8.65,0,1.09,0,1.31,0,.12,0,.21-.1.21-.22h0Z"/>
    <path class="cls-2" d="M1.43,23.34s.07-.05.11-.03l2.19.89s.06.07.03.1c-.6.95-.97,1.89-1.1,2.84-.3,2.03.7,3.7,2.8,3.82,1.9.11,3.31-.87,3.25-2.85-.02-.7-.02-5.73,0-15.1,0-.07.06-.13.13-.13h2.31c.08,0,.14.07.14.14,0,8.72,0,13.23,0,13.52.07,1.96-.09,3.32-.47,4.06-.82,1.6-2.24,2.5-4.23,2.7-2.97.29-5.98-.83-6.48-4.04-.32-2.11.12-4.08,1.33-5.92h0Z"/>
    <path class="cls-2" d="M84.98,28.3c0,.13-.1.23-.23.23h-2.1c-.13,0-.23-.1-.23-.23v-15.19c0-.13.1-.23.23-.23h2.1c.13,0,.23.1.23.23v15.19h0Z"/>
    <path class="cls-2" d="M32.44,27.82c-.31.65-.91.98-1.78.99-2.51.03-5,.03-7.49.02-.14,0-.24.11-.23.25.38,4.98-3.86,4.47-7.23,4.5-.18,0-.33-.15-.33-.33v-1.78c0-.16.13-.29.29-.29h3.3c.49,0,.93-.31,1.1-.77l.36-.98c.13-.34-.16-.68-.52-.62-.64.12-2.24.04-2.99-.02-1.74-.14-2.83-1.11-3.27-2.9-.19-.78-.24-2.48-.04-3.28.67-2.73,2.47-3.96,5.42-3.69,2.85.27,3.98,2.46,3.92,5.07,0,.18,0,.97-.02,2.37,0,.09.08.17.17.17,1.88,0,3.86,0,5.93.01.87,0,1.29-.4,1.24-1.23-.02-.37-.03-1.67,0-3.9,0-.16.13-.3.3-.3h1.98c.16,0,.29.13.29.29v3.82c0,.73.59,1.32,1.32,1.32h.86c.59,0,1.06-.48,1.06-1.07v-4.08c0-.14.12-.26.26-.26h2.13c.13,0,.25.11.25.25v3.8c0,.77.62,1.38,1.38,1.38h.59c.7,0,1.28-.57,1.28-1.28v-5.76c0-.1.09-.19.19-.19h2.18c.11,0,.2.09.2.2,0,4.21,0,6.62-.04,7.26-.13,2.38-2.53,2.06-4.34,2.04-.61,0-1.17-.32-1.65-.95-.06-.08-.17-.07-.22.01-.64,1.05-1.59.93-2.76.95-.73.01-1.32-.02-1.77-.09-.11-.02-.22-.06-.32-.12-.27-.16-.52-.43-.76-.81-.06-.09-.2-.09-.24.01M20.41,26.32c.03-1.89.36-4.78-1.7-5.07-2.28-.31-2.8,1.71-2.6,3.51.2,1.77,1.38,1.77,2.78,1.79.65,0,1.09,0,1.31,0,.12,0,.21-.1.21-.22h0Z"/>
    <path class="cls-2" d="M85.9,33.8c.16,0,.3.13.3.3v.57c0,.18-.14.32-.32.32h-4.6c-.12,0-.24-.09-.27-.21-.04-.16-.04-.42.02-.77.02-.12.12-.21.24-.21.17,0,.29.02.36.05.15.07.31-.08.26-.24-.97-2.77,1.55-4.38,3.83-2.95.27.17.33.54.12.78l-.23.27c-.17.2-.47.19-.63-.01-.24-.31-.69-.41-1.36-.3-.13.02-.25.09-.33.2-.39.51-.41,1.1-.05,1.76.15.27.43.44.74.44h1.91Z"/>
    <path class="cls-2" d="M77.04,32.77c0,.15-.12.27-.27.27h-1.87c-.15,0-.27-.12-.27-.27v-1.99c0-.15.12-.27.27-.27h1.87c.15,0,.27.12.27.27v1.99h0Z"/>
    <path class="cls-2" d="M80.06,32.77c0,.15-.12.27-.27.27h-1.86c-.15,0-.27-.12-.27-.27v-2c0-.15.12-.27.27-.27h1.86c.15,0,.27.12.27.27v2h0Z"/>
    <path class="cls-2" d="M61.18,48.03c-.07-.09-.42-.28-1.05-.59-1.61-.78-4.41-1.22-5.06.99-.18.62,0,1.23.55,1.83.06.06.13.11.21.15l1.24.5s.05.02.08.02l2.2.3c.24.03.48.09.71.18,1.87.72,3.13,1.48,3.37,3.68.38,3.35-2.05,5.23-5.18,5.45-2.44.17-4.58-.47-6.4-1.91-.19-.15-.22-.44-.06-.63l1.19-1.39c.15-.18.43-.21.61-.06,1.48,1.16,3.14,1.72,5.06,1.45,1.77-.25,2.7-2.1,1.41-3.51-.7-.77-3.17-.91-3.89-1.06-1.94-.4-3.68-1.54-3.87-3.66-.34-3.74,2.26-5.58,5.78-5.41,1.6.08,3.09.57,4.47,1.47.17.11.22.34.1.51l-1.1,1.67c-.09.13-.28.14-.38.01h0Z"/>
    <path class="cls-2" d="M10.69,51.34v2.1c0,.09-.07.16-.16.16h-6.07c-.09,0-.16.07-.16.16v3.92c0,.09.07.16.16.16h7.23c.09,0,.16.07.16.16v2.17c0,.09-.07.16-.16.16H1.68c-.09,0-.16-.07-.16-.16v-15.41c0-.09.07-.16.16-.16h10c.09,0,.16.07.16.16v2.09c0,.09-.07.16-.16.16h-7.22c-.09,0-.16.07-.16.16v3.82c0,.09.07.16.16.16h6.06c.09,0,.16.07.16.16h0Z"/>
    <path class="cls-2" d="M86.76,60.46s-.52-.02-1.51-.04c-1.98-.06-2.49-1.7-2.49-3.45,0-3.99,0-7.99,0-11.99,0-.21.17-.38.38-.38h1.91c.19,0,.34.15.34.35v12.46c0,.33.24.62.57.68.21.04.45.04.72,0,.2-.03.39.12.39.33v1.76c0,.17-.14.3-.31.27h0Z"/>
    <path class="cls-2" d="M19.07,54.75c0,.86.03,1.44.11,1.74.51,2.11,2.83,2.29,4.17.85.11-.12.3-.13.43-.02l1.36,1.16c.15.13.16.36.02.5-1.33,1.31-2.92,1.81-4.77,1.51-3.15-.51-3.98-2.91-3.97-5.75,0-2.84.85-5.23,4.01-5.72,1.85-.29,3.44.23,4.76,1.54.14.14.13.37-.02.5l-1.37,1.15c-.13.11-.32.1-.43-.03-1.34-1.44-3.65-1.28-4.18.83-.08.3-.11.88-.12,1.74h0Z"/>
    <path class="cls-2" d="M39.59,55.99c0,2.5-2.02,4.53-4.52,4.53h-.8c-2.5,0-4.53-2.02-4.53-4.51v-2.47c0-2.5,2.01-4.53,4.51-4.53h.8c2.5,0,4.53,2.02,4.53,4.51v2.47M36.96,53.42c0-1.17-.95-2.12-2.12-2.13h-.3c-1.17,0-2.13.95-2.13,2.12v2.68c0,1.17.94,2.12,2.12,2.13h.3c1.17,0,2.13-.95,2.13-2.12v-2.68h0Z"/>
    <path class="cls-2" d="M77.68,55.99c0,2.5-2.02,4.52-4.52,4.52h-.79c-2.5,0-4.52-2.02-4.52-4.52v-2.48c0-2.5,2.02-4.52,4.52-4.52h.79c2.5,0,4.52,2.02,4.52,4.52v2.48M75.05,53.4c0-1.17-.96-2.12-2.13-2.11h-.31c-1.17,0-2.12.96-2.11,2.13v2.68c.01,1.17.97,2.12,2.14,2.11h.31c1.17,0,2.12-.96,2.11-2.13v-2.68h0Z"/>
  </g>
</svg>